<?xml version="1.0" standalone="no"?>
<!DOCTYPE svg PUBLIC "-//W3C//DTD SVG 20010904//EN"
 "http://www.w3.org/TR/2001/REC-SVG-20010904/DTD/svg10.dtd">
<svg version="1.0" xmlns="http://www.w3.org/2000/svg"
 width="512.000000pt" height="512.000000pt" viewBox="0 0 512.000000 512.000000"
 preserveAspectRatio="xMidYMid meet">

<g transform="translate(0.000000,512.000000) scale(0.100000,-0.100000)"
fill="green" stroke="none">
<path d="M2506 4738 c-60 -64 -326 -386 -458 -554 -642 -824 -1028 -1502
-1113 -1959 -23 -121 -16 -368 14 -509 110 -516 441 -944 906 -1171 576 -282
1257 -213 1760 180 318 248 529 589 615 992 30 138 38 378 17 498 -74 420
-408 1032 -971 1780 -232 308 -610 767 -642 779 -9 3 -32 6 -51 6 -29 0 -44
-8 -77 -42z m404 -1308 c26 -26 26 -27 -23 -535 l-42 -430 261 -5 c240 -5 264
-7 283 -24 49 -44 54 -37 -475 -736 -272 -360 -506 -665 -520 -678 -32 -28
-61 -28 -91 0 l-23 21 0 459 0 458 -226 0 c-264 0 -284 5 -284 75 1 24 98 158
496 680 272 358 511 669 530 693 40 48 80 56 114 22z"/>
</g>
</svg>
