<?xml version="1.0" standalone="no"?>
<!DOCTYPE svg PUBLIC "-//W3C//DTD SVG 20010904//EN"
 "http://www.w3.org/TR/2001/REC-SVG-20010904/DTD/svg10.dtd">
<svg version="1.0" xmlns="http://www.w3.org/2000/svg"
 width="512.000000pt" height="512.000000pt" viewBox="0 0 512.000000 512.000000"
 preserveAspectRatio="xMidYMid meet">

<g transform="translate(0.000000,512.000000) scale(0.100000,-0.100000)"
fill="#ff0000" stroke="none">
<path d="M2375 4793 c-921 -80 -1711 -724 -1963 -1603 -68 -235 -87 -373 -86
-635 0 -249 16 -372 78 -598 206 -746 807 -1347 1553 -1553 224 -61 349 -77
598 -78 242 -1 343 11 559 65 621 155 1161 592 1453 1174 90 178 171 439 209
670 27 164 25 505 -4 675 -85 500 -304 918 -659 1261 -369 356 -836 571 -1343
618 -107 10 -303 12 -395 4z m490 -337 c202 -36 347 -83 524 -167 399 -191
708 -500 901 -901 253 -528 253 -1132 -1 -1658 -461 -957 -1602 -1358 -2558
-899 -400 192 -709 501 -901 901 -84 176 -129 318 -167 528 -24 133 -24 467 0
600 38 210 83 352 167 528 122 254 284 463 495 640 291 244 638 394 1025 441
107 14 408 6 515 -13z"/>
<path d="M2495 3826 c-41 -18 -83 -69 -90 -109 -3 -18 -5 -298 -3 -624 3 -580
3 -592 24 -619 39 -53 71 -69 134 -69 63 0 95 16 134 69 21 27 21 37 21 646 0
609 0 619 -21 646 -11 15 -32 37 -46 47 -33 25 -113 32 -153 13z"/>
<path d="M2952 3660 c-46 -28 -72 -76 -72 -133 0 -68 20 -98 108 -165 247
-189 372 -439 372 -746 0 -346 -186 -640 -494 -781 -295 -135 -624 -68 -863
176 -153 156 -229 331 -240 555 -16 323 107 594 358 785 89 68 109 98 109 166
0 91 -63 153 -156 153 -44 0 -61 -6 -115 -42 -86 -56 -244 -216 -306 -308
-154 -230 -222 -473 -210 -755 3 -71 12 -163 21 -202 108 -499 504 -858 1011
-915 329 -37 722 138 945 421 145 184 221 362 251 589 14 106 6 319 -15 420
-36 169 -120 356 -215 482 -64 85 -209 224 -290 278 -54 36 -71 42 -115 42
-33 0 -62 -7 -84 -20z"/>
</g>
</svg>
